<svg xmlns="http://www.w3.org/2000/svg" xmlns:xlink="http://www.w3.org/1999/xlink" width="1024" zoomAndPan="magnify" viewBox="0 0 768 767.999994" height="1024" preserveAspectRatio="xMidYMid meet" version="1.0"><defs><clipPath id="fcf64a363f"><path d="M 3.949219 3.949219 L 764 3.949219 L 764 764 L 3.949219 764 Z M 3.949219 3.949219 " clip-rule="nonzero"/></clipPath><clipPath id="725cfe7352"><path d="M 106.910156 106.910156 L 660.75 106.910156 L 660.75 660.75 L 106.910156 660.75 Z M 106.910156 106.910156 " clip-rule="nonzero"/></clipPath><clipPath id="69fc7ced01"><path d="M 217.886719 217.886719 L 550.113281 217.886719 L 550.113281 550.113281 L 217.886719 550.113281 Z M 217.886719 217.886719 " clip-rule="nonzero"/></clipPath></defs><g clip-path="url(#fcf64a363f)"><path fill="#ffffff" d="M 358.457031 662.492188 L 358.457031 738.503906 C 358.457031 752.488281 369.808594 763.839844 383.796875 763.839844 C 397.773438 763.839844 409.128906 752.488281 409.128906 738.503906 L 409.128906 662.492188 C 409.128906 648.507812 397.773438 637.15625 383.796875 637.15625 C 369.808594 637.15625 358.457031 648.507812 358.457031 662.492188 Z M 652.527344 616.695312 L 598.78125 562.945312 C 588.890625 553.058594 572.839844 553.058594 562.945312 562.945312 C 553.058594 572.839844 553.058594 588.890625 562.945312 598.78125 L 616.695312 652.527344 C 626.582031 662.414062 642.640625 662.414062 652.527344 652.527344 C 662.414062 642.640625 662.414062 626.582031 652.527344 616.695312 Z M 168.804688 562.945312 L 115.058594 616.695312 C 105.167969 626.582031 105.167969 642.640625 115.058594 652.527344 C 124.949219 662.414062 141.003906 662.414062 150.890625 652.527344 L 204.636719 598.78125 C 214.527344 588.890625 214.527344 572.839844 204.636719 562.945312 C 194.75 553.058594 178.691406 553.058594 168.804688 562.945312 Z M 383.796875 181.101562 C 271.921875 181.101562 181.101562 271.921875 181.101562 383.796875 C 181.101562 495.664062 271.921875 586.484375 383.796875 586.484375 C 495.664062 586.484375 586.484375 495.664062 586.484375 383.796875 C 586.484375 271.921875 495.664062 181.101562 383.796875 181.101562 Z M 383.796875 231.777344 C 467.699219 231.777344 535.8125 299.894531 535.8125 383.796875 C 535.8125 467.699219 467.699219 535.8125 383.796875 535.8125 C 299.894531 535.8125 231.777344 467.699219 231.777344 383.796875 C 231.777344 299.894531 299.894531 231.777344 383.796875 231.777344 Z M 738.503906 358.457031 L 662.492188 358.457031 C 648.507812 358.457031 637.15625 369.808594 637.15625 383.796875 C 637.15625 397.773438 648.507812 409.128906 662.492188 409.128906 L 738.503906 409.128906 C 752.488281 409.128906 763.839844 397.773438 763.839844 383.796875 C 763.839844 369.808594 752.488281 358.457031 738.503906 358.457031 Z M 105.089844 358.457031 L 29.082031 358.457031 C 15.101562 358.457031 3.75 369.808594 3.75 383.796875 C 3.75 397.773438 15.101562 409.128906 29.082031 409.128906 L 105.089844 409.128906 C 119.078125 409.128906 130.429688 397.773438 130.429688 383.796875 C 130.429688 369.808594 119.078125 358.457031 105.089844 358.457031 Z M 616.695312 115.058594 L 562.945312 168.804688 C 553.058594 178.691406 553.058594 194.75 562.945312 204.636719 C 572.839844 214.527344 588.890625 214.527344 598.78125 204.636719 L 652.527344 150.890625 C 662.414062 141.003906 662.414062 124.949219 652.527344 115.058594 C 642.640625 105.167969 626.582031 105.167969 616.695312 115.058594 Z M 204.636719 168.804688 L 150.890625 115.058594 C 141.003906 105.167969 124.949219 105.167969 115.058594 115.058594 C 105.167969 124.949219 105.167969 141.003906 115.058594 150.890625 L 168.804688 204.636719 C 178.691406 214.527344 194.75 214.527344 204.636719 204.636719 C 214.527344 194.75 214.527344 178.691406 204.636719 168.804688 Z M 358.457031 29.082031 L 358.457031 105.089844 C 358.457031 119.078125 369.808594 130.429688 383.796875 130.429688 C 397.773438 130.429688 409.128906 119.078125 409.128906 105.089844 L 409.128906 29.082031 C 409.128906 15.101562 397.773438 3.75 383.796875 3.75 C 369.808594 3.75 358.457031 15.101562 358.457031 29.082031 Z M 358.457031 29.082031 " fill-opacity="1" fill-rule="evenodd"/></g><g clip-path="url(#725cfe7352)"><path fill="#ffffff" d="M 384 106.910156 C 230.734375 106.910156 106.910156 230.734375 106.910156 384 C 106.910156 537.261719 230.734375 661.085938 384 661.085938 C 537.261719 661.085938 661.085938 537.261719 661.085938 384 C 661.085938 230.734375 537.261719 106.910156 384 106.910156 Z M 384 557.179688 C 288.75 557.179688 210.820312 479.246094 210.820312 384 C 210.820312 288.75 288.75 210.820312 384 210.820312 C 479.246094 210.820312 557.179688 288.75 557.179688 384 C 557.179688 479.246094 479.246094 557.179688 384 557.179688 Z M 384 557.179688 " fill-opacity="1" fill-rule="nonzero"/></g><g clip-path="url(#69fc7ced01)"><path fill="#ffffff" d="M 217.886719 217.886719 L 550.113281 217.886719 L 550.113281 550.113281 L 217.886719 550.113281 Z M 217.886719 217.886719 " fill-opacity="1" fill-rule="nonzero"/></g></svg>