<svg xmlns="http://www.w3.org/2000/svg" xmlns:xlink="http://www.w3.org/1999/xlink" width="1024" zoomAndPan="magnify" viewBox="0 0 768 767.999994" height="1024" preserveAspectRatio="xMidYMid meet" version="1.0"><defs><clipPath id="75586daaf1"><path d="M 3.949219 3.949219 L 764.402344 3.949219 L 764.402344 764.402344 L 3.949219 764.402344 Z M 3.949219 3.949219 " clip-rule="nonzero"/></clipPath><clipPath id="a9caa40f03"><path d="M 106.910156 106.910156 L 660.75 106.910156 L 660.75 660.75 L 106.910156 660.75 Z M 106.910156 106.910156 " clip-rule="nonzero"/></clipPath><clipPath id="bb89b90153"><path d="M 217.886719 217.886719 L 550.113281 217.886719 L 550.113281 550.113281 L 217.886719 550.113281 Z M 217.886719 217.886719 " clip-rule="nonzero"/></clipPath></defs><g clip-path="url(#75586daaf1)"><path fill="#000000" d="M 358.625 662.804688 L 358.625 738.851562 C 358.625 752.84375 369.980469 764.199219 383.972656 764.199219 C 397.960938 764.199219 409.320312 752.84375 409.320312 738.851562 L 409.320312 662.804688 C 409.320312 648.8125 397.960938 637.453125 383.972656 637.453125 C 369.980469 637.453125 358.625 648.8125 358.625 662.804688 Z M 652.832031 616.984375 L 599.0625 563.210938 C 589.167969 553.316406 573.109375 553.316406 563.210938 563.210938 C 553.316406 573.109375 553.316406 589.167969 563.210938 599.0625 L 616.984375 652.832031 C 626.875 662.726562 642.941406 662.726562 652.832031 652.832031 C 662.726562 642.941406 662.726562 626.875 652.832031 616.984375 Z M 168.882812 563.210938 L 115.109375 616.984375 C 105.21875 626.875 105.21875 642.941406 115.109375 652.832031 C 125.007812 662.726562 141.066406 662.726562 150.960938 652.832031 L 204.734375 599.0625 C 214.625 589.167969 214.625 573.109375 204.734375 563.210938 C 194.839844 553.316406 178.773438 553.316406 168.882812 563.210938 Z M 383.972656 181.183594 C 272.046875 181.183594 181.183594 272.046875 181.183594 383.976562 C 181.183594 495.894531 272.046875 586.757812 383.972656 586.757812 C 495.894531 586.757812 586.757812 495.894531 586.757812 383.976562 C 586.757812 272.046875 495.894531 181.183594 383.972656 181.183594 Z M 383.972656 231.882812 C 467.917969 231.882812 536.066406 300.03125 536.066406 383.976562 C 536.066406 467.917969 467.917969 536.066406 383.972656 536.066406 C 300.03125 536.066406 231.882812 467.917969 231.882812 383.976562 C 231.882812 300.03125 300.03125 231.882812 383.972656 231.882812 Z M 738.851562 358.625 L 662.804688 358.625 C 648.8125 358.625 637.453125 369.980469 637.453125 383.976562 C 637.453125 397.960938 648.8125 409.320312 662.804688 409.320312 L 738.851562 409.320312 C 752.84375 409.320312 764.199219 397.960938 764.199219 383.976562 C 764.199219 369.980469 752.84375 358.625 738.851562 358.625 Z M 105.136719 358.625 L 29.09375 358.625 C 15.105469 358.625 3.75 369.980469 3.75 383.976562 C 3.75 397.960938 15.105469 409.320312 29.09375 409.320312 L 105.136719 409.320312 C 119.128906 409.320312 130.488281 397.960938 130.488281 383.976562 C 130.488281 369.980469 119.128906 358.625 105.136719 358.625 Z M 616.984375 115.109375 L 563.210938 168.882812 C 553.316406 178.773438 553.316406 194.839844 563.210938 204.734375 C 573.109375 214.625 589.167969 214.625 599.058594 204.734375 L 652.832031 150.960938 C 662.726562 141.066406 662.726562 125.007812 652.832031 115.109375 C 642.941406 105.21875 626.875 105.21875 616.984375 115.109375 Z M 204.734375 168.882812 L 150.960938 115.109375 C 141.066406 105.21875 125.007812 105.21875 115.109375 115.109375 C 105.21875 125.007812 105.21875 141.066406 115.109375 150.960938 L 168.882812 204.734375 C 178.773438 214.625 194.839844 214.625 204.734375 204.734375 C 214.625 194.839844 214.625 178.773438 204.734375 168.882812 Z M 358.625 29.09375 L 358.625 105.136719 C 358.625 119.128906 369.980469 130.488281 383.972656 130.488281 C 397.960938 130.488281 409.320312 119.128906 409.320312 105.136719 L 409.320312 29.09375 C 409.320312 15.105469 397.960938 3.75 383.972656 3.75 C 369.980469 3.75 358.625 15.105469 358.625 29.09375 Z M 358.625 29.09375 " fill-opacity="1" fill-rule="evenodd"/></g><g clip-path="url(#a9caa40f03)"><path fill="#000000" d="M 383.832031 106.910156 C 230.660156 106.910156 106.910156 230.660156 106.910156 383.832031 C 106.910156 537 230.660156 660.75 383.832031 660.75 C 537 660.75 660.75 537 660.75 383.832031 C 660.75 230.660156 537 106.910156 383.832031 106.910156 Z M 383.832031 556.90625 C 288.640625 556.90625 210.757812 479.019531 210.757812 383.832031 C 210.757812 288.640625 288.640625 210.757812 383.832031 210.757812 C 479.019531 210.757812 556.90625 288.640625 556.90625 383.832031 C 556.90625 479.019531 479.019531 556.90625 383.832031 556.90625 Z M 383.832031 556.90625 " fill-opacity="1" fill-rule="nonzero"/></g><g clip-path="url(#bb89b90153)"><path fill="#000000" d="M 217.886719 217.886719 L 550.113281 217.886719 L 550.113281 550.113281 L 217.886719 550.113281 Z M 217.886719 217.886719 " fill-opacity="1" fill-rule="nonzero"/></g></svg>